<svg id="Layer_1" data-name="Layer 1" xmlns="http://www.w3.org/2000/svg" viewBox="0 0 266.61 217.06"><defs><style>.cls-1{fill:#fff;stroke:#333;}.cls-1,.cls-2,.cls-3,.cls-5,.cls-6,.cls-7,.cls-8,.cls-9{stroke-miterlimit:10;}.cls-2{fill:#5b6438;}.cls-2,.cls-3,.cls-5,.cls-6,.cls-7,.cls-8,.cls-9{stroke:#231f20;}.cls-3{fill:#66733e;}.cls-4{fill:#010101;}.cls-5{fill:#a1bc72;}.cls-6{fill:#bdbec0;}.cls-7{fill:#a97d51;}.cls-8{fill:#231f20;}.cls-9{fill:#806e62;}</style></defs><rect class="cls-1" x="98.73" y="2.09" width="87.28" height="128.71"/><path class="cls-2" d="M432,217.57a46.3,46.3,0,0,1,11.46,2.29v-7.52c-3.66-.86-7.36-1.83-11.16-2.57a32.8,32.8,0,0,1,2.41-9c10.6-25.34,1.41-32.44,1.41-32.44-10-7-48.66-17.49-89.88-17.3V278.78c42.68.73,82.52-8.78,89.88-13.93,0,0,9.19-7.11-1.41-32.44A35.54,35.54,0,0,1,432,217.57Z" transform="translate(-255.26 -150.49)"/><path class="cls-3" d="M449.37,154.27c-44.73,2.07-90.06,17.87-103.06,65.32,12.17,44.43,58,59.39,103.06,61.85Z" transform="translate(-255.26 -150.49)"/><path class="cls-4" d="M416.52,197.45v8.39a17,17,0,0,1-8,5.57,20.76,20.76,0,0,1-6.74,1,19.42,19.42,0,0,1-9.51-2.36,16.53,16.53,0,0,1-6.44-6.46,21.54,21.54,0,0,1,0-19.41,16.47,16.47,0,0,1,6.44-6.49,19.08,19.08,0,0,1,9.51-2.31,24.84,24.84,0,0,1,5,.46,20.28,20.28,0,0,1,4.05,1.24,22,22,0,0,1,3.28,1.76l1,7.17h-.46a12,12,0,0,0-2.52-5,11.52,11.52,0,0,0-4.4-3.08,15.93,15.93,0,0,0-6-1.06,13.44,13.44,0,0,0-7.53,2.13,14.42,14.42,0,0,0-5.09,5.95,22.58,22.58,0,0,0,0,17.81,14.15,14.15,0,0,0,5.09,5.92,13.88,13.88,0,0,0,7.53,2.17,17.09,17.09,0,0,0,8.19-2.07,14.64,14.64,0,0,0,3.25-2.36l.05-9c0-1.53-.86-2.29-2.59-2.29h-.81v-.51h10v.51h-.77C417.3,195.16,416.45,195.92,416.52,197.45Z" transform="translate(-255.26 -150.49)"/><path class="cls-4" d="M416.52,243.41v8.39a17.08,17.08,0,0,1-3.15,3.06,17.63,17.63,0,0,1-4.86,2.52,20.76,20.76,0,0,1-6.74,1,19.54,19.54,0,0,1-9.51-2.37,16.4,16.4,0,0,1-6.44-6.46,19.56,19.56,0,0,1-2.31-9.69,19.79,19.79,0,0,1,2.31-9.72,16.45,16.45,0,0,1,6.44-6.48,19.08,19.08,0,0,1,9.51-2.32,25.58,25.58,0,0,1,5,.46,20.28,20.28,0,0,1,4.05,1.25,23,23,0,0,1,3.28,1.75l1,7.18h-.46a12,12,0,0,0-2.52-5,11.41,11.41,0,0,0-4.4-3.08,15.93,15.93,0,0,0-6-1.07,13.37,13.37,0,0,0-7.53,2.14,14.36,14.36,0,0,0-5.09,5.95,22.56,22.56,0,0,0,0,17.8,14.18,14.18,0,0,0,5.09,5.93,13.79,13.79,0,0,0,7.53,2.16,16.93,16.93,0,0,0,8.19-2.06,15,15,0,0,0,3.25-2.36l.05-9c0-1.52-.86-2.29-2.59-2.29h-.81v-.51h10v.51h-.77C417.3,241.12,416.45,241.89,416.52,243.41Z" transform="translate(-255.26 -150.49)"/><path class="cls-5" d="M299.31,321.74s-11,3.2,1.86,14c3.11,2.6,3.28,4.58,3.35,6.36-25.17-.28-39.14-3.28-46.58,1.38,0,0-4.95,7.56.08,6.43,16-3.62,29.72-5.4,46.18-4.45a8.93,8.93,0,0,1-2.86,3.93c-12.62,11.08-1.53,14-1.53,14,12.05,3.16,165,13.08,221-22.68C435,307.27,306.27,318.12,299.31,321.74Z" transform="translate(-255.26 -150.49)"/><path class="cls-6" d="M402.33,322.52c1.68-2.32,8.18-3.71,8.18-3.71v-1.2s-7-1.41-8.26-3.46l-9.62,2.76,0,3.64Z" transform="translate(-255.26 -150.49)"/><line class="cls-7" x1="155.24" y1="167.7" x2="143.8" y2="167.9"/><ellipse class="cls-8" cx="398.13" cy="318.51" rx="1.65" ry="0.91" transform="translate(-258.32 -146.63) rotate(-0.55)"/><path class="cls-7" d="M392.62,316.91" transform="translate(-255.26 -150.49)"/><path class="cls-9" d="M350.2,322.53s-40.44-1.93-43.4-1.57v0h-.09c-1,0-1.87-.39-1.88-.91s.83-.94,1.86-.95h.06l.32,0c4.88.08,42.91-3,42.91-3,19.88-2.32,42.64.78,42.64.78l.12,3.45S371,323.65,350.2,322.53Z" transform="translate(-255.26 -150.49)"/><path class="cls-4" d="M333.92,340.37v6a12.26,12.26,0,0,1-2.24,2.17,12,12,0,0,1-3.46,1.79,14.69,14.69,0,0,1-4.79.71,14,14,0,0,1-6.77-1.68,11.69,11.69,0,0,1-4.57-4.6,15.25,15.25,0,0,1,0-13.8,11.65,11.65,0,0,1,4.57-4.61,13.58,13.58,0,0,1,6.77-1.65A17.74,17.74,0,0,1,327,325a14.32,14.32,0,0,1,2.88.88,16.5,16.5,0,0,1,2.33,1.25l.72,5.1h-.32a8.57,8.57,0,0,0-1.79-3.52,8.06,8.06,0,0,0-3.13-2.19,11.28,11.28,0,0,0-4.27-.76,9.45,9.45,0,0,0-5.35,1.52,10.16,10.16,0,0,0-3.62,4.23,16.06,16.06,0,0,0,0,12.66,10,10,0,0,0,3.62,4.21,9.7,9.7,0,0,0,5.35,1.54,11.88,11.88,0,0,0,3.06-.38,12.18,12.18,0,0,0,2.76-1.08,10.68,10.68,0,0,0,2.32-1.68l0-6.41c0-1.08-.61-1.63-1.84-1.63h-.58v-.36h7.09v.36h-.54C334.47,338.74,333.87,339.29,333.92,340.37Z" transform="translate(-255.26 -150.49)"/><path class="cls-4" d="M340.23,337.55h-.05a1.35,1.35,0,0,0-.41-.92,1.37,1.37,0,0,0-1-.36h-.34V336h2.05Zm0,11.41.28,1.54h-2.05v-.24h.34a1.31,1.31,0,0,0,1-.39,1.37,1.37,0,0,0,.41-.91ZM341.7,336V350.5h-1.55V336ZM341.62,349h.08a1.37,1.37,0,0,0,1.37,1.3h.31l0,.24h-2.08Zm2.9-12.93a7.2,7.2,0,0,1,2,.27,4.37,4.37,0,0,1,1.54.77,3.43,3.43,0,0,1,1,1.23,3.91,3.91,0,0,1,.33,1.64,3.84,3.84,0,0,1-.48,1.88,4,4,0,0,1-1.34,1.42,4.37,4.37,0,0,1-1.94.68,2.94,2.94,0,0,1,1,.75,8.27,8.27,0,0,1,.93,1.13c.42.56.79,1.05,1.12,1.46s.66.8,1,1.17.65.69.93,1a3.12,3.12,0,0,0,.92.64,2.73,2.73,0,0,0,1.14.23v.24h-.75a5.9,5.9,0,0,1-2.18-.34,4.35,4.35,0,0,1-1.39-.83,13,13,0,0,1-.91-.95c-.07-.08-.22-.29-.45-.62l-.76-1.07c-.27-.39-.52-.73-.75-1.05l-.41-.56a6.54,6.54,0,0,0-1.1-1.13,2.13,2.13,0,0,0-1.33-.49v-.24H344c.45,0,.9-.05,1.35-.11a2.71,2.71,0,0,0,1.27-.52,2.9,2.9,0,0,0,.93-1.45,3,3,0,0,0,.14-.62,3.71,3.71,0,0,0,0-.75,3.3,3.3,0,0,0-.26-1.21,2.57,2.57,0,0,0-.65-.91,3.05,3.05,0,0,0-1-.61,4.3,4.3,0,0,0-1.3-.24c-.76,0-1.42,0-2,0s-.84,0-.84,0a1.25,1.25,0,0,0-.06-.21l-.18-.54Z" transform="translate(-255.26 -150.49)"/><path class="cls-4" d="M355.37,337.55h-.05a1.27,1.27,0,0,0-.41-.92,1.37,1.37,0,0,0-1-.36h-.33V336h2.09Zm0,11.41.31,1.54h-2.09v-.24h.33a1.31,1.31,0,0,0,1-.39,1.28,1.28,0,0,0,.41-.91Zm1.5-12.93V350.5h-1.55V336Zm6.46,0v.75h-6.51V336Zm-1.11,6.87v.73h-5.4v-.73Zm1.13,6.85-.05.75h-6.48v-.75Zm1.35-2.7-1.32,3.45h-3.67l.82-.75a4.43,4.43,0,0,0,1.94-.35,3.16,3.16,0,0,0,1.2-1,6.9,6.9,0,0,0,.79-1.39Zm-1.37-11.4v.62l-2.75-.24a10,10,0,0,0,1.59-.13A7,7,0,0,0,363.33,335.65Zm-1.11,5.93V343H361v-.05a.89.89,0,0,0,.74-.3,1.09,1.09,0,0,0,.24-.71v-.31Zm0,2V345H362v-.31a1.11,1.11,0,0,0-.24-.71.89.89,0,0,0-.74-.3v-.05Zm1.11-6.87v1.66h-.27V338a1.23,1.23,0,0,0-.32-.87,1.13,1.13,0,0,0-.88-.36v-.07Z" transform="translate(-255.26 -150.49)"/><path class="cls-4" d="M368.3,337.55h-.05a1.31,1.31,0,0,0-.41-.92,1.4,1.4,0,0,0-1-.36h-.34V336h2.1Zm0,11.41.31,1.54h-2.1v-.24h.34a1.34,1.34,0,0,0,1-.39,1.33,1.33,0,0,0,.41-.91ZM369.79,336V350.5h-1.54V336Zm6.46,0v.75h-6.51V336Zm-1.1,6.87v.73h-5.41v-.73Zm1.13,6.85,0,.75h-6.49v-.75Zm1.35-2.7-1.33,3.45h-3.66l.82-.75a4.46,4.46,0,0,0,1.94-.35,3.05,3.05,0,0,0,1.19-1,6.92,6.92,0,0,0,.8-1.39Zm-1.38-11.4v.62l-2.74-.24a10.2,10.2,0,0,0,1.59-.13A6.58,6.58,0,0,0,376.25,335.65Zm-1.1,5.93V343h-1.26v-.05a.9.9,0,0,0,.75-.3,1.09,1.09,0,0,0,.24-.71v-.31Zm0,2V345h-.27v-.31a1.11,1.11,0,0,0-.24-.71.9.9,0,0,0-.75-.3v-.05Zm1.1-6.87v1.66H376V338a1.24,1.24,0,0,0-.33-.87,1.12,1.12,0,0,0-.88-.36v-.07Z" transform="translate(-255.26 -150.49)"/><path class="cls-4" d="M381,349v1.49h-1.8v-.24h.41a1.33,1.33,0,0,0,.94-.36,1.19,1.19,0,0,0,.38-.89Zm0-13.34,1,1.35,0,13.48h-1.09V338.68a26.43,26.43,0,0,0-.21-3Zm0,0,13.36,12.59.24,2.58L381.2,338.18ZM382,349a1.14,1.14,0,0,0,.4.89,1.32,1.32,0,0,0,.92.36h.41v.24H382V349Zm11.48-11.48a1.32,1.32,0,0,0-1.35-1.26h-.41V336h1.81v1.5Zm1.06-1.5v11.72c0,.52,0,1,.05,1.48s.09,1,.17,1.61h-.22l-1.06-1.28V336Zm-.07,1.5V336h1.8v.24h-.41a1.32,1.32,0,0,0-.92.36,1.16,1.16,0,0,0-.4.9Z" transform="translate(-255.26 -150.49)"/><path class="cls-4" d="M431.83,340.37v6a12.05,12.05,0,0,1-5.7,4,14.69,14.69,0,0,1-4.79.71,14,14,0,0,1-6.76-1.68,11.71,11.71,0,0,1-4.58-4.6,15.25,15.25,0,0,1,0-13.8,11.67,11.67,0,0,1,4.58-4.61,13.51,13.51,0,0,1,6.76-1.65,17.67,17.67,0,0,1,3.58.33,14.32,14.32,0,0,1,2.88.88,16.5,16.5,0,0,1,2.33,1.25l.72,5.1h-.32a8.45,8.45,0,0,0-1.79-3.52,8,8,0,0,0-3.13-2.19,11.28,11.28,0,0,0-4.27-.76,9.45,9.45,0,0,0-5.35,1.52,10.16,10.16,0,0,0-3.62,4.23,16.06,16.06,0,0,0,0,12.66,10,10,0,0,0,3.62,4.21,9.7,9.7,0,0,0,5.35,1.54,12.15,12.15,0,0,0,5.82-1.46,10.68,10.68,0,0,0,2.32-1.68l0-6.41c0-1.08-.62-1.63-1.85-1.63h-.58v-.36h7.09v.36h-.54C432.38,338.74,431.78,339.29,431.83,340.37Z" transform="translate(-255.26 -150.49)"/><path class="cls-4" d="M437.58,336v1.28h-.05a1,1,0,0,0-.35-.74,1.12,1.12,0,0,0-.8-.3H436V336Zm1.5,0v9.12a5.4,5.4,0,0,0,1.19,3.69,4.15,4.15,0,0,0,3.27,1.35,4.93,4.93,0,0,0,3.6-1.28,4.64,4.64,0,0,0,1.32-3.5V336h1.11v9.38a5.1,5.1,0,0,1-1.61,4,6.3,6.3,0,0,1-4.4,1.46,6.36,6.36,0,0,1-4.4-1.45,5,5,0,0,1-1.63-3.95V336Zm1.52,0v.24h-.37a1.19,1.19,0,0,0-.8.3.94.94,0,0,0-.35.74H439V336Zm7.91,0v1.28h-.05a1,1,0,0,0-.34-.74,1.18,1.18,0,0,0-.82-.3h-.36V336Zm2.58,0v.24h-.36a1.15,1.15,0,0,0-.8.3,1,1,0,0,0-.36.74h-.05V336Z" transform="translate(-255.26 -150.49)"/><path class="cls-4" d="M455.31,337.57h-.07a1.25,1.25,0,0,0-.5-.92,1.76,1.76,0,0,0-1.14-.38h-.34V336h2.05Zm0,11.39v1.54h-2.05v-.24h.34a1.71,1.71,0,0,0,1.14-.39,1.24,1.24,0,0,0,.5-.91ZM456.75,336V350.5h-1.51V336Zm-.07,1.54V336h2.05l0,.24h-.32a1.76,1.76,0,0,0-1.14.38,1.25,1.25,0,0,0-.5.92Zm0,11.39h.07a1.24,1.24,0,0,0,.5.91,1.71,1.71,0,0,0,1.14.39h.32l0,.24h-2.05Z" transform="translate(-255.26 -150.49)"/><path class="cls-4" d="M463.15,337.57h0a1.28,1.28,0,0,0-.44-.92,1.44,1.44,0,0,0-1-.38h-.29V336h1.79Zm0,11.39.31,1.54h-2.1v-.24h.34a1.34,1.34,0,0,0,1-.39,1.33,1.33,0,0,0,.41-.91ZM464.64,336V350.5H463.1V336Zm-.07,1.54V336h1.78v.24h-.29a1.47,1.47,0,0,0-1,.38,1.19,1.19,0,0,0-.42.92Zm6.56,12.18-.05.75h-6.49v-.75Zm1.35-2.7-1.33,3.45h-3.66l.82-.75a4.46,4.46,0,0,0,1.94-.35,3.05,3.05,0,0,0,1.19-1,6.92,6.92,0,0,0,.8-1.39Z" transform="translate(-255.26 -150.49)"/><path class="cls-4" d="M475.45,337.6h-.05a1.35,1.35,0,0,0-.42-1,1.38,1.38,0,0,0-1-.38h-.29V336h1.74Zm0,11.33v1.57h-1.74v-.24H474a1.28,1.28,0,0,0,1-.4,1.37,1.37,0,0,0,.41-.93ZM477,336V350.5H475.4V336Zm4.79,0a9.12,9.12,0,0,1,4.13.87,6.23,6.23,0,0,1,2.68,2.5,7.65,7.65,0,0,1,.94,3.87,7.57,7.57,0,0,1-.94,3.85,6.35,6.35,0,0,1-2.68,2.5,9,9,0,0,1-4.13.88h-5.13l-.05-.72h5.18a5.67,5.67,0,0,0,4.41-1.75,7.9,7.9,0,0,0,0-9.53,5.71,5.71,0,0,0-4.41-1.75h-5.42V336Z" transform="translate(-255.26 -150.49)"/><path class="cls-4" d="M310.68,304.64a2.3,2.3,0,0,0,.37.1l.55.08a3.65,3.65,0,0,0,.55,0l-1.47.13Zm7,.22v.36h-7v-.36Zm-6.15.32v0a.7.7,0,0,0-.5.22.66.66,0,0,0-.21.5v.21h-.12v-1Zm2.31,7.25v.88h-1v-.12H313a.73.73,0,0,0,.54-.22.78.78,0,0,0,.23-.54Zm.75-7.52v8.4h-.79v-8.4Zm0,7.52h0a.74.74,0,0,0,.23.54.73.73,0,0,0,.54.22h.15v.12h-1Zm3.13-7.79V305l-1.47-.13a3.6,3.6,0,0,0,.56,0l.55-.08A1.68,1.68,0,0,0,317.66,304.64Zm0,.54v1h-.12v-.21a.66.66,0,0,0-.21-.5.72.72,0,0,0-.5-.22v0Z" transform="translate(-255.26 -150.49)"/><path class="cls-4" d="M319.44,306.85h0a.68.68,0,0,0-.21-.47.71.71,0,0,0-.49-.18h-.14v-.12h.88Zm0,5.69v.77h-.88v-.12h.14a.67.67,0,0,0,.49-.19.68.68,0,0,0,.21-.46Zm.73-6.46v7.23h-.77v-7.23Zm4.57,3.48v.36H320v-.36Zm-4.6-2.71v-.77H321v.12h-.15a.71.71,0,0,0-.49.18.61.61,0,0,0-.21.47Zm0,5.69h0a.6.6,0,0,0,.21.46.67.67,0,0,0,.49.19H321v.12h-.88Zm4.52-5.69h0a.67.67,0,0,0-.7-.65h-.14v-.12h.88Zm0,5.69v.77h-.88v-.12h.14a.66.66,0,0,0,.49-.19.68.68,0,0,0,.21-.46Zm.73-6.46v7.23h-.77v-7.23Zm0,.77v-.77h.88v.12h-.15a.72.72,0,0,0-.49.18.68.68,0,0,0-.21.47Zm0,5.69h0a.68.68,0,0,0,.7.65h.15v.12h-.88Z" transform="translate(-255.26 -150.49)"/><path class="cls-4" d="M328.44,306.84h0a.64.64,0,0,0-.21-.46.67.67,0,0,0-.49-.18h-.17v-.12h1.05Zm0,5.7.16.77h-1.05v-.12h.17a.64.64,0,0,0,.49-.19.68.68,0,0,0,.21-.46Zm.75-6.46v7.23h-.77v-7.23Zm3.23,0v.37h-3.25v-.37Zm-.55,3.43v.37h-2.7v-.37Zm.57,3.43,0,.37h-3.24v-.37Zm.67-1.35-.66,1.72h-1.84l.41-.37a2.26,2.26,0,0,0,1-.18,1.46,1.46,0,0,0,.59-.48,3.11,3.11,0,0,0,.4-.69Zm-.69-5.71v.32l-1.37-.12a5.64,5.64,0,0,0,.79-.07A2.69,2.69,0,0,0,332.42,305.88Zm-.55,3v.69h-.63v0a.46.46,0,0,0,.38-.15.55.55,0,0,0,.12-.35v-.16Zm0,1v.69h-.13v-.16a.55.55,0,0,0-.12-.35.43.43,0,0,0-.38-.15v0Zm.55-3.44v.84h-.13v-.18a.63.63,0,0,0-.16-.44.57.57,0,0,0-.44-.18v0Z" transform="translate(-255.26 -150.49)"/><path class="cls-4" d="M450.93,308.32" transform="translate(-255.26 -150.49)"/></svg>